HIERARCHY
ROOT pelvis
{
	OFFSET 0.003123 -0.351407 0.012037
	CHANNELS 6 Xposition Yposition Zposition Zrotation Yrotation Xrotation 
	JOINT left_hip
	{
		OFFSET 0.058189 -0.092763 -0.026001
		CHANNELS 3 Zrotation Yrotation Xrotation
		JOINT left_knee
		{
			OFFSET 0.054695 -0.378753 -0.009396
			CHANNELS 3 Zrotation Yrotation Xrotation
			JOINT left_ankle
			{
				OFFSET -0.043453 -0.403059 -0.031876
				CHANNELS 3 Zrotation Yrotation Xrotation
				JOINT left_foot
				{
					OFFSET 0.047257 -0.057997 0.118216
					CHANNELS 3 Zrotation Yrotation Xrotation
					End Site
					{
						OFFSET 0.000000 0.000000 0.000000
					}
				}
			}
		}
	}
	JOINT right_hip
	{
		OFFSET -0.063267 -0.103908 -0.021250
		CHANNELS 3 Zrotation Yrotation Xrotation
		JOINT right_knee
		{
			OFFSET -0.044210 -0.362380 -0.016824
			CHANNELS 3 Zrotation Yrotation Xrotation
			JOINT right_ankle
			{
				OFFSET 0.015417 -0.410728 -0.020192
				CHANNELS 3 Zrotation Yrotation Xrotation
				JOINT right_foot
				{
					OFFSET -0.038812 -0.058328 0.119049
					CHANNELS 3 Zrotation Yrotation Xrotation
					End Site
					{
						OFFSET 0.000000 0.000000 0.000000
					}
				}
			}
		}
	}
	JOINT spine_1
	{
		OFFSET -0.002763 0.109891 -0.027618
		CHANNELS 3 Zrotation Yrotation Xrotation
		JOINT spine_2
		{
			OFFSET 0.009448 0.131853 -0.005940
			CHANNELS 3 Zrotation Yrotation Xrotation
			JOINT spine_3
			{
				OFFSET -0.011330 0.052235 0.028447
				CHANNELS 3 Zrotation Yrotation Xrotation
				JOINT neck
				{
					OFFSET -0.012164 0.165167 -0.031615
					CHANNELS 3 Zrotation Yrotation Xrotation
					JOINT head
					{
						OFFSET 0.024783 0.160452 0.020737
						CHANNELS 3 Zrotation Yrotation Xrotation
						End Site
						{
							OFFSET 0.000000 0.000000 0.000000
						}
					}
				}
				JOINT left_collar
				{
					OFFSET 0.046364 0.084944 -0.007220
					CHANNELS 3 Zrotation Yrotation Xrotation
					JOINT left_shoulder
					{
						OFFSET 0.119239 0.057728 -0.015461
						CHANNELS 3 Zrotation Yrotation Xrotation
						JOINT left_elbow
						{
							OFFSET 0.254123 -0.072151 -0.042459
							CHANNELS 3 Zrotation Yrotation Xrotation
							JOINT left_wrist
							{
								OFFSET 0.251987 0.023221 -0.002472
								CHANNELS 3 Zrotation Yrotation Xrotation
								JOINT left_index_1
								{
									OFFSET 0.101902 -0.008688 0.019351
									CHANNELS 3 Zrotation Yrotation Xrotation
									JOINT left_index_2
									{
										OFFSET 0.030149 -0.011154 0.001151
										CHANNELS 3 Zrotation Yrotation Xrotation
										JOINT left_index_3
										{
											OFFSET 0.006504 -0.021577 -0.002433
											CHANNELS 3 Zrotation Yrotation Xrotation
											End Site
											{
												OFFSET 0.000000 0.000000 0.000000
											}
										}
									}
								}
								JOINT left_middle_1
								{
									OFFSET 0.109398 -0.006328 -0.003981
									CHANNELS 3 Zrotation Yrotation Xrotation
									JOINT left_middle_2
									{
										OFFSET 0.026472 -0.015218 -0.004641
										CHANNELS 3 Zrotation Yrotation Xrotation
										JOINT left_middle_3
										{
											OFFSET 0.005022 -0.023347 -0.001911
											CHANNELS 3 Zrotation Yrotation Xrotation
											End Site
											{
												OFFSET 0.000000 0.000000 0.000000
											}
										}
									}
								}
								JOINT left_pinky_1
								{
									OFFSET 0.084047 -0.014539 -0.043750
									CHANNELS 3 Zrotation Yrotation Xrotation
									JOINT left_pinky_2
									{
										OFFSET 0.012124 -0.014448 -0.005375
										CHANNELS 3 Zrotation Yrotation Xrotation
										JOINT left_pinky_3
										{
											OFFSET 0.003798 -0.018853 0.000167
											CHANNELS 3 Zrotation Yrotation Xrotation
											End Site
											{
												OFFSET 0.000000 0.000000 0.000000
											}
										}
									}
								}
								JOINT left_ring_1
								{
									OFFSET 0.097444 -0.009268 -0.027345
									CHANNELS 3 Zrotation Yrotation Xrotation
									JOINT left_ring_2
									{
										OFFSET 0.023561 -0.016057 -0.001895
										CHANNELS 3 Zrotation Yrotation Xrotation
										JOINT left_ring_3
										{
											OFFSET 0.004257 -0.023548 0.000814
											CHANNELS 3 Zrotation Yrotation Xrotation
											End Site
											{
												OFFSET 0.000000 0.000000 0.000000
											}
										}
									}
								}
								JOINT left_thumb_1
								{
									OFFSET 0.040636 -0.017977 0.025611
									CHANNELS 3 Zrotation Yrotation Xrotation
									JOINT left_thumb_2
									{
										OFFSET 0.021637 -0.017639 0.011623
										CHANNELS 3 Zrotation Yrotation Xrotation
										JOINT left_thumb_3
										{
											OFFSET 0.024002 -0.008356 0.006548
											CHANNELS 3 Zrotation Yrotation Xrotation
											End Site
											{
												OFFSET 0.000000 0.000000 0.000000
											}
										}
									}
								}
							}
						}
					}
				}
				JOINT right_collar
				{
					OFFSET -0.047695 0.084339 -0.013400
					CHANNELS 3 Zrotation Yrotation Xrotation
					JOINT right_shoulder
					{
						OFFSET -0.102578 0.053524 -0.012669
						CHANNELS 3 Zrotation Yrotation Xrotation
						JOINT right_elbow
						{
							OFFSET -0.271150 -0.036492 -0.026467
							CHANNELS 3 Zrotation Yrotation Xrotation
							JOINT right_wrist
							{
								OFFSET -0.249267 -0.004533 -0.015325
								CHANNELS 3 Zrotation Yrotation Xrotation
								JOINT right_index_1
								{
									OFFSET -0.099881 -0.011783 0.019600
									CHANNELS 3 Zrotation Yrotation Xrotation
									JOINT right_index_2
									{
										OFFSET -0.030148 -0.011154 0.001151
										CHANNELS 3 Zrotation Yrotation Xrotation
										JOINT right_index_3
										{
											OFFSET -0.006505 -0.021577 -0.002432
											CHANNELS 3 Zrotation Yrotation Xrotation
											End Site
											{
												OFFSET 0.000000 0.000000 0.000000
											}
										}
									}
								}
								JOINT right_middle_1
								{
									OFFSET -0.107376 -0.009422 -0.003734
									CHANNELS 3 Zrotation Yrotation Xrotation
									JOINT right_middle_2
									{
										OFFSET -0.026472 -0.015218 -0.004641
										CHANNELS 3 Zrotation Yrotation Xrotation
										JOINT right_middle_3
										{
											OFFSET -0.005022 -0.023347 -0.001911
											CHANNELS 3 Zrotation Yrotation Xrotation
											End Site
											{
												OFFSET 0.000000 0.000000 0.000000
											}
										}
									}
								}
								JOINT right_pinky_1
								{
									OFFSET -0.082027 -0.017634 -0.043503
									CHANNELS 3 Zrotation Yrotation Xrotation
									JOINT right_pinky_2
									{
										OFFSET -0.012123 -0.014448 -0.005374
										CHANNELS 3 Zrotation Yrotation Xrotation
										JOINT right_pinky_3
										{
											OFFSET -0.003798 -0.018852 0.000167
											CHANNELS 3 Zrotation Yrotation Xrotation
											End Site
											{
												OFFSET 0.000000 0.000000 0.000000
											}
										}
									}
								}
								JOINT right_ring_1
								{
									OFFSET -0.095423 -0.012362 -0.027099
									CHANNELS 3 Zrotation Yrotation Xrotation
									JOINT right_ring_2
									{
										OFFSET -0.023561 -0.016057 -0.001895
										CHANNELS 3 Zrotation Yrotation Xrotation
										JOINT right_ring_3
										{
											OFFSET -0.004257 -0.023548 0.000816
											CHANNELS 3 Zrotation Yrotation Xrotation
											End Site
											{
												OFFSET 0.000000 0.000000 0.000000
											}
										}
									}
								}
								JOINT right_thumb_1
								{
									OFFSET -0.038613 -0.021074 0.025861
									CHANNELS 3 Zrotation Yrotation Xrotation
									JOINT right_thumb_2
									{
										OFFSET -0.021636 -0.017639 0.011623
										CHANNELS 3 Zrotation Yrotation Xrotation
										JOINT right_thumb_3
										{
											OFFSET -0.024004 -0.008353 0.006547
											CHANNELS 3 Zrotation Yrotation Xrotation
											End Site
											{
												OFFSET 0.000000 0.000000 0.000000
											}
										}
									}
								}
							}
						}
					}
				}
			}
		}
	}
}
MOTION
Frames: 7
Frame Time: 0.050000
-0.012222 1.051342 0.045464 2.790270 -2.606551 -34.977761 0.311158 4.760673 30.724317 6.206010 -2.081179 9.347562 -15.178018 -7.432518 22.934630 0.000000 0.000000 0.000000 -1.187462 -3.942571 40.532513 -2.431472 0.185158 1.054158 10.542917 1.291506 24.818164 0.000000 0.000000 0.000000 -2.197988 -2.005322 40.265640 8.723400 -4.373625 9.613304 -11.679277 4.862273 -22.811176 -1.901346 -6.363145 34.172125 0.000000 0.000000 0.000000 -11.505331 -5.193435 -0.120949 -21.935325 -14.545739 -3.982331 61.710181 -77.595644 -44.960281 11.575016 -4.535321 -30.115519 4.882370 -4.123565 -1.186357 37.091292 -1.415741 -7.999973 0.000000 0.000000 0.000000 2.550976 -12.348610 -6.465374 28.736447 -0.370445 -8.588538 0.000000 0.000000 0.000000 16.079970 -15.026149 -23.726209 20.505503 -0.309284 1.489674 0.000000 0.000000 0.000000 4.032856 -14.655020 -10.883827 28.036620 1.877857 -4.393771 0.000000 0.000000 0.000000 31.132901 16.445794 -2.273401 -18.720379 -10.244102 2.417191 0.000000 0.000000 0.000000 24.178269 9.201078 5.975297 17.337849 22.780354 -0.458042 -124.902127 68.688488 -102.985223 -9.646064 4.332434 -33.752145 -0.614607 -2.785154 0.664322 3.511496 -1.722908 10.699997 0.000000 0.000000 0.000000 8.330553 17.628358 -8.397681 35.561544 2.995078 0.759909 0.000000 0.000000 0.000000 -3.513586 29.378330 -42.387946 11.434645 -2.453228 4.273098 0.000000 0.000000 0.000000 14.092248 26.638425 -13.215859 18.519173 8.015966 -11.633674 0.000000 0.000000 0.000000 -32.456197 -24.019255 5.255302 21.094979 11.717846 2.422368 0.000000 0.000000 0.000000 
-0.013400 1.051987 0.054703 3.594702 -1.132537 -36.559868 -0.853110 4.539461 28.097137 8.840939 -3.136961 12.462868 -15.903371 -6.889003 24.526823 0.000000 0.000000 0.000000 -2.001110 -3.993716 42.665645 -1.429206 0.110913 0.729431 9.720193 -0.483667 26.405068 0.000000 0.000000 0.000000 -7.400655 -0.623322 41.983002 10.090721 -5.581222 9.021953 -9.027523 7.327197 -20.876502 -4.353553 -6.226321 36.906124 0.000000 0.000000 0.000000 -10.434913 -2.029270 -1.935646 -24.387953 -17.909895 -4.478562 47.822992 -79.892300 -34.997532 14.075934 -5.732958 -29.224124 3.661328 -5.652408 -1.473357 30.076514 -1.058158 -12.993412 0.000000 0.000000 0.000000 -2.648358 -13.212674 -6.588837 24.551674 -0.371368 -12.536986 0.000000 0.000000 0.000000 13.079306 -13.749312 -20.257366 13.590624 0.303018 2.347149 0.000000 0.000000 0.000000 -2.437474 -13.409542 -8.585961 22.482136 1.085189 -9.059054 0.000000 0.000000 0.000000 25.799636 12.683841 -4.469307 -17.630966 -8.439865 2.346231 0.000000 0.000000 0.000000 24.527824 10.010401 7.223612 14.731207 21.637562 -0.963488 -121.088672 69.739459 -99.309864 -12.528228 6.465261 -36.834463 0.657229 1.216257 -0.164770 51.603925 -2.564702 11.378288 0.000000 0.000000 0.000000 18.801979 22.455792 -8.031998 56.765580 13.287214 -10.201103 0.000000 0.000000 0.000000 3.439711 29.357652 -38.167098 14.664968 -0.987039 0.428297 0.000000 0.000000 0.000000 20.570186 30.280665 -12.002605 27.191726 17.212804 -21.923969 0.000000 0.000000 0.000000 -34.014262 -20.432526 -0.484652 22.999380 9.880125 3.301208 0.000000 0.000000 0.000000 
-0.011280 1.045540 0.058662 3.358980 -1.738903 -35.724745 -0.313061 4.088492 25.954243 9.129464 -3.083927 11.920352 -16.533056 -7.879034 24.551847 0.000000 0.000000 0.000000 -0.657341 -4.185628 40.138066 -2.611450 0.300300 2.730908 9.051866 -1.926300 27.327936 0.000000 0.000000 0.000000 -7.076790 -0.627943 46.759333 10.022672 -6.454511 2.478638 -10.270736 8.233304 -18.548946 -3.840512 -6.509832 36.653798 0.000000 0.000000 0.000000 -11.323531 -2.959938 -1.783184 -23.049114 -18.515742 -4.758032 58.943207 -79.421260 -44.705978 15.401297 -3.874064 -30.713329 0.599672 -4.117089 -0.657437 10.385347 -2.704538 -18.221614 0.000000 0.000000 0.000000 -9.509904 -14.985985 -6.592884 -6.829404 -6.476781 -22.750453 0.000000 0.000000 0.000000 9.045743 -18.687049 -29.152492 8.408948 -3.552859 -11.015065 0.000000 0.000000 0.000000 -10.053868 -19.077994 -10.148602 9.266196 -8.051196 -31.653829 0.000000 0.000000 0.000000 23.176855 10.690075 -5.546725 -14.683568 -3.574950 2.469587 0.000000 0.000000 0.000000 26.600964 9.898698 7.792977 16.026389 22.675376 -0.944632 -119.889722 69.359316 -97.744660 -13.963148 3.451050 -36.904322 2.834340 -1.907648 -0.086663 89.890217 2.675569 -3.016885 0.000000 0.000000 0.000000 40.016106 28.542543 -4.572019 67.538876 22.732817 -21.936368 0.000000 0.000000 0.000000 11.765653 40.418008 -46.718717 -4.619724 2.387750 -6.759593 0.000000 0.000000 0.000000 31.570385 43.965667 -12.655509 29.365844 17.938361 -21.253689 0.000000 0.000000 0.000000 -34.095144 -25.364696 3.052378 24.266250 12.301984 1.998005 0.000000 0.000000 0.000000 
-0.015167 1.042316 0.054703 2.639491 -1.102708 -34.991603 1.866371 3.533490 26.145551 7.563852 -2.126819 8.300540 -16.468324 -6.974471 25.236246 0.000000 0.000000 0.000000 0.870807 -4.910217 39.503006 -3.632177 0.420744 3.287656 8.608043 -0.366131 23.673837 0.000000 0.000000 0.000000 -7.160375 -0.800206 45.610367 11.945614 -7.548587 3.605842 -12.007360 9.532576 -19.911322 -1.437054 -7.328263 34.376201 0.000000 0.000000 0.000000 -10.916699 -2.641943 -2.146298 -26.859448 -18.901975 -4.694426 57.347357 -80.683235 -44.772152 14.486368 -1.975463 -29.209971 4.651390 -5.120228 -1.148023 16.640821 -0.734545 -9.874817 0.000000 0.000000 0.000000 -3.561319 -14.732203 -7.113538 11.703442 -1.432826 -16.569268 0.000000 0.000000 0.000000 12.259235 -15.813515 -24.100843 12.177903 -0.874444 -3.139472 0.000000 0.000000 0.000000 -3.982845 -16.750970 -10.364974 12.185287 -1.220874 -12.523549 0.000000 0.000000 0.000000 27.138958 15.447503 -2.671729 -19.373659 -6.410576 3.361432 0.000000 0.000000 0.000000 25.465958 9.902549 8.368090 19.747683 21.890196 -0.378396 -117.940090 68.247609 -93.458314 -14.165554 -1.977082 -35.314715 3.178619 -0.182331 -0.077075 79.241548 20.808969 -13.641838 0.000000 0.000000 0.000000 28.630992 33.465229 -7.709218 46.603618 28.474076 -41.930588 0.000000 0.000000 0.000000 -0.111583 40.920178 -54.702482 -7.126680 0.308255 -0.255492 0.000000 0.000000 0.000000 27.654884 43.754462 -14.520252 -17.800904 7.381427 -40.504281 0.000000 0.000000 0.000000 -29.477234 -22.847092 2.058984 19.645504 8.314870 1.923052 0.000000 0.000000 0.000000 
-0.020702 1.038448 0.058662 2.139811 -4.056640 -34.867211 3.180906 3.333674 25.402581 6.024858 -1.913385 8.516914 -16.206349 -6.329599 26.252301 0.000000 0.000000 0.000000 1.076307 -4.408315 38.360027 -2.704851 0.326441 3.121925 9.535181 0.887691 22.861444 0.000000 0.000000 0.000000 -6.424482 -0.875272 47.480197 10.561435 -6.909915 1.399054 -10.226728 9.867810 -18.526341 -1.916899 -6.296717 31.614895 0.000000 0.000000 0.000000 -10.104689 -3.698235 -1.205737 -27.736314 -15.884815 -4.601065 59.106841 -78.661190 -45.044205 17.328158 -3.545038 -31.767805 6.516453 -3.264570 -0.793085 21.375857 -0.912132 -11.209607 0.000000 0.000000 0.000000 -0.011019 -12.040321 -6.002231 15.971364 -1.244059 -17.154841 0.000000 0.000000 0.000000 14.595547 -15.385617 -23.353184 15.310185 -0.317301 -0.727295 0.000000 0.000000 0.000000 -0.418834 -13.720041 -9.142782 21.668796 -0.133672 -17.487133 0.000000 0.000000 0.000000 29.568854 15.559505 -3.455973 -18.361577 -9.291731 2.186833 0.000000 0.000000 0.000000 26.230563 11.918129 10.278879 21.989465 21.538700 -0.181527 -115.495343 66.218529 -88.336802 -16.221716 0.624804 -33.820687 2.650200 -2.066618 0.043495 51.823343 20.195010 -19.784892 0.000000 0.000000 0.000000 21.761402 21.768424 -7.279802 38.547970 22.180302 -34.255452 0.000000 0.000000 0.000000 1.540876 35.490704 -47.186734 -12.135022 1.832309 -6.547654 0.000000 0.000000 0.000000 23.172914 35.992981 -13.355564 -4.278480 11.601286 -34.699067 0.000000 0.000000 0.000000 -26.341031 -18.524217 -0.923811 15.930976 4.586759 2.142040 0.000000 0.000000 0.000000 
-0.021645 1.038448 0.056023 1.720809 -6.017060 -35.571801 3.115333 3.334358 24.577495 6.543724 -2.056025 8.869959 -15.670674 -5.285628 27.139007 0.000000 0.000000 0.000000 1.466649 -4.371000 39.341414 -3.138344 0.310612 2.465369 9.858205 1.750411 21.711793 0.000000 0.000000 0.000000 -5.978577 -0.886685 49.856026 8.494709 -5.987472 -0.747150 -8.055276 9.529842 -16.999843 -3.036615 -5.879347 32.617665 0.000000 0.000000 0.000000 -10.420796 -3.889449 -0.983269 -27.803224 -17.354767 -4.761859 55.776242 -75.893836 -39.969828 18.981852 -4.941353 -31.823868 5.881419 -2.505585 -0.546776 16.628721 -1.855345 -16.403430 0.000000 0.000000 0.000000 -2.150887 -14.361243 -6.841632 16.700855 -1.877790 -26.475394 0.000000 0.000000 0.000000 14.941542 -18.297914 -28.398445 14.483170 -0.799872 -2.962505 0.000000 0.000000 0.000000 0.065824 -18.163466 -12.045395 18.637819 -1.460971 -21.507052 0.000000 0.000000 0.000000 27.553760 16.005478 -2.784448 -20.084613 -7.422299 3.169004 0.000000 0.000000 0.000000 26.980973 11.712010 9.766761 24.580766 23.612351 0.266956 -111.443198 66.284873 -84.598905 -16.024772 0.629265 -33.023608 1.272501 -0.093078 -0.100511 56.078896 14.981032 -11.957554 0.000000 0.000000 0.000000 27.326849 25.499875 -6.944094 33.380417 20.656883 -40.261184 0.000000 0.000000 0.000000 4.929212 38.643730 -48.662758 -15.210677 0.758138 -1.863901 0.000000 0.000000 0.000000 20.943835 39.861254 -15.919771 -4.758369 9.033715 -29.144470 0.000000 0.000000 0.000000 -23.079476 -20.906221 1.763121 15.730316 9.579047 -0.109796 0.000000 0.000000 0.000000 
-0.023058 1.036514 0.059982 1.583628 -6.370734 -34.770394 2.609761 3.136263 22.605514 6.958705 -2.048147 8.413123 -15.460775 -5.376122 26.772578 0.000000 0.000000 0.000000 1.744864 -4.365314 38.493755 -2.750324 0.299909 2.749274 9.792328 1.745984 21.471620 0.000000 0.000000 0.000000 -7.694427 -0.234441 50.032013 8.676042 -6.475249 -3.656620 -5.413184 11.012948 -11.998881 -2.517558 -5.294244 29.565737 0.000000 0.000000 0.000000 -11.167620 -3.190815 -1.493461 -28.280448 -19.961887 -5.149885 54.709583 -74.624282 -38.086959 22.756091 -7.648417 -31.695835 6.156110 -2.197289 -0.554032 17.020801 -1.603297 -15.418837 0.000000 0.000000 0.000000 -1.209682 -13.362806 -6.256311 14.736528 -1.460804 -24.757042 0.000000 0.000000 0.000000 16.525101 -20.309457 -32.096360 13.045832 -0.537065 -1.737109 0.000000 0.000000 0.000000 1.704100 -18.566376 -12.535033 15.171231 -2.324673 -22.239753 0.000000 0.000000 0.000000 27.039109 13.577799 -4.897160 -20.390658 -3.660681 4.309845 0.000000 0.000000 0.000000 25.531388 10.328276 8.317557 25.731742 23.748824 0.240923 -110.867476 66.833474 -84.535443 -18.771124 2.880035 -30.255613 -1.178320 1.046280 -0.288157 -0.897570 6.617215 -24.952896 0.000000 0.000000 0.000000 10.119776 16.291981 -7.206245 12.301371 9.276273 -28.132757 0.000000 0.000000 0.000000 -10.310048 26.790040 -39.730062 -7.257734 0.910212 -3.197976 0.000000 0.000000 0.000000 10.780616 25.640389 -13.166141 -12.201532 4.258235 -26.205493 0.000000 0.000000 0.000000 -23.590385 -16.145682 -1.077838 16.389188 5.876963 2.208894 0.000000 0.000000 0.000000 
